<?xml version="1.0" encoding="UTF-8" standalone="no"?>
<!DOCTYPE svg PUBLIC "-//W3C//DTD SVG 1.1//EN"
 "http://www.w3.org/Graphics/SVG/1.1/DTD/svg11.dtd">
<!-- Generated by graphviz version 2.47.0 (20210316.0004)
 -->
<!-- Title: dependencies Pages: 1 -->
<svg width="2395pt" height="284pt"
 viewBox="0.00 0.00 2395.00 284.00" xmlns="http://www.w3.org/2000/svg" xmlns:xlink="http://www.w3.org/1999/xlink">
<g id="graph0" class="graph" transform="scale(1 1) rotate(0) translate(4 280)">
<title>dependencies</title>
<polygon fill="white" stroke="transparent" points="-4,4 -4,-280 2391,-280 2391,4 -4,4"/>
<text text-anchor="start" x="1172.51" y="-42.4" font-family="Times-12" font-weight="bold" font-size="14.00">Legend</text>
<polygon fill="#ffffb3" stroke="transparent" points="959.5,-10 959.5,-30 979.5,-30 979.5,-10 959.5,-10"/>
<text text-anchor="start" x="983.13" y="-15.4" font-family="Times-12" font-size="14.00"> &#160;Declarations</text>
<polygon fill="#8dd3c7" stroke="transparent" points="1072.5,-10 1072.5,-30 1092.5,-30 1092.5,-10 1072.5,-10"/>
<text text-anchor="start" x="1096.23" y="-15.4" font-family="Times-12" font-size="14.00"> &#160;Module</text>
<polygon fill="#80b1d3" stroke="transparent" points="1158.5,-10 1158.5,-30 1178.5,-30 1178.5,-10 1158.5,-10"/>
<text text-anchor="start" x="1182.28" y="-15.4" font-family="Times-12" font-size="14.00"> &#160;Bootstrap</text>
<polygon fill="#fdb462" stroke="transparent" points="1255.5,-10 1255.5,-30 1275.5,-30 1275.5,-10 1255.5,-10"/>
<text text-anchor="start" x="1279.17" y="-15.4" font-family="Times-12" font-size="14.00"> &#160;Providers</text>
<polygon fill="#fb8072" stroke="transparent" points="1351.5,-10 1351.5,-30 1371.5,-30 1371.5,-10 1351.5,-10"/>
<text text-anchor="start" x="1375.23" y="-15.4" font-family="Times-12" font-size="14.00"> &#160;Exports</text>
<g id="clust1" class="cluster">
<title>cluster_AppModule</title>
<polygon fill="none" stroke="black" stroke-dasharray="1,5" points="8,-70 8,-268 2379,-268 2379,-70 8,-70"/>
</g>
<g id="clust16" class="cluster">
<title>cluster_AppModule_imports</title>
<polygon fill="none" stroke="black" points="2227,-78 2227,-130 2371,-130 2371,-78 2227,-78"/>
</g>
<g id="clust18" class="cluster">
<title>cluster_AppModule_bootstrap</title>
<polygon fill="none" stroke="black" points="1132,-208 1132,-260 1256,-260 1256,-208 1132,-208"/>
</g>
<g id="clust19" class="cluster">
<title>cluster_AppModule_providers</title>
<polygon fill="none" stroke="black" points="2085,-78 2085,-130 2219,-130 2219,-78 2085,-78"/>
</g>
<g id="clust2" class="cluster">
<title>cluster_AppModule_declarations</title>
<polygon fill="none" stroke="black" points="16,-78 16,-130 2077,-130 2077,-78 16,-78"/>
</g>
<!-- AppComponent -->
<g id="node1" class="node">
<title>AppComponent</title>
<polygon fill="#ffffb3" stroke="black" points="2068.94,-122 1963.06,-122 1963.06,-86 2068.94,-86 2068.94,-122"/>
<text text-anchor="middle" x="2016" y="-99.8" font-family="Times,serif" font-size="14.00">AppComponent</text>
</g>
<!-- AppModule -->
<g id="node14" class="node">
<title>AppModule</title>
<polygon fill="#8dd3c7" stroke="black" points="1235.66,-187 1232.66,-191 1211.66,-191 1208.66,-187 1152.34,-187 1152.34,-151 1235.66,-151 1235.66,-187"/>
<text text-anchor="middle" x="1194" y="-164.8" font-family="Times,serif" font-size="14.00">AppModule</text>
</g>
<!-- AppComponent&#45;&gt;AppModule -->
<g id="edge1" class="edge">
<title>AppComponent&#45;&gt;AppModule</title>
<path fill="none" stroke="black" d="M2016,-122.03C2016,-142.77 2016,-174 2016,-174 2016,-174 1245.89,-174 1245.89,-174"/>
<polygon fill="black" stroke="black" points="1245.89,-170.5 1235.89,-174 1245.89,-177.5 1245.89,-170.5"/>
</g>
<!-- CategoryComponent -->
<g id="node2" class="node">
<title>CategoryComponent</title>
<polygon fill="#ffffb3" stroke="black" points="1945.15,-122 1812.85,-122 1812.85,-86 1945.15,-86 1945.15,-122"/>
<text text-anchor="middle" x="1879" y="-99.8" font-family="Times,serif" font-size="14.00">CategoryComponent</text>
</g>
<!-- CategoryComponent&#45;&gt;AppModule -->
<g id="edge2" class="edge">
<title>CategoryComponent&#45;&gt;AppModule</title>
<path fill="none" stroke="black" d="M1879,-122.11C1879,-141.34 1879,-169 1879,-169 1879,-169 1245.82,-169 1245.82,-169"/>
<polygon fill="black" stroke="black" points="1245.82,-165.5 1235.82,-169 1245.82,-172.5 1245.82,-165.5"/>
</g>
<!-- ConfirmationModalComponent -->
<g id="node3" class="node">
<title>ConfirmationModalComponent</title>
<polygon fill="#ffffb3" stroke="black" points="1794.82,-122 1601.18,-122 1601.18,-86 1794.82,-86 1794.82,-122"/>
<text text-anchor="middle" x="1698" y="-99.8" font-family="Times,serif" font-size="14.00">ConfirmationModalComponent</text>
</g>
<!-- ConfirmationModalComponent&#45;&gt;AppModule -->
<g id="edge3" class="edge">
<title>ConfirmationModalComponent&#45;&gt;AppModule</title>
<path fill="none" stroke="black" d="M1698,-122.3C1698,-140.27 1698,-165 1698,-165 1698,-165 1245.67,-165 1245.67,-165"/>
<polygon fill="black" stroke="black" points="1245.67,-161.5 1235.67,-165 1245.67,-168.5 1245.67,-161.5"/>
</g>
<!-- FooterComponent -->
<g id="node4" class="node">
<title>FooterComponent</title>
<polygon fill="#ffffb3" stroke="black" points="1582.88,-122 1465.12,-122 1465.12,-86 1582.88,-86 1582.88,-122"/>
<text text-anchor="middle" x="1524" y="-99.8" font-family="Times,serif" font-size="14.00">FooterComponent</text>
</g>
<!-- FooterComponent&#45;&gt;AppModule -->
<g id="edge4" class="edge">
<title>FooterComponent&#45;&gt;AppModule</title>
<path fill="none" stroke="black" d="M1524,-122.03C1524,-138.4 1524,-160 1524,-160 1524,-160 1245.79,-160 1245.79,-160"/>
<polygon fill="black" stroke="black" points="1245.79,-156.5 1235.79,-160 1245.79,-163.5 1245.79,-156.5"/>
</g>
<!-- GameCardComponent -->
<g id="node5" class="node">
<title>GameCardComponent</title>
<polygon fill="#ffffb3" stroke="black" points="1446.97,-122 1305.03,-122 1305.03,-86 1446.97,-86 1446.97,-122"/>
<text text-anchor="middle" x="1376" y="-99.8" font-family="Times,serif" font-size="14.00">GameCardComponent</text>
</g>
<!-- GameCardComponent&#45;&gt;AppModule -->
<g id="edge5" class="edge">
<title>GameCardComponent&#45;&gt;AppModule</title>
<path fill="none" stroke="black" d="M1376,-122.19C1376,-137.18 1376,-156 1376,-156 1376,-156 1245.75,-156 1245.75,-156"/>
<polygon fill="black" stroke="black" points="1245.75,-152.5 1235.75,-156 1245.75,-159.5 1245.75,-152.5"/>
</g>
<!-- GameDetailModalComponent -->
<g id="node6" class="node">
<title>GameDetailModalComponent</title>
<polygon fill="#ffffb3" stroke="black" points="1286.52,-122 1101.48,-122 1101.48,-86 1286.52,-86 1286.52,-122"/>
<text text-anchor="middle" x="1194" y="-99.8" font-family="Times,serif" font-size="14.00">GameDetailModalComponent</text>
</g>
<!-- GameDetailModalComponent&#45;&gt;AppModule -->
<g id="edge6" class="edge">
<title>GameDetailModalComponent&#45;&gt;AppModule</title>
<path fill="none" stroke="black" d="M1194,-122.11C1194,-122.11 1194,-140.99 1194,-140.99"/>
<polygon fill="black" stroke="black" points="1190.5,-140.99 1194,-150.99 1197.5,-140.99 1190.5,-140.99"/>
</g>
<!-- HeaderComponent -->
<g id="node7" class="node">
<title>HeaderComponent</title>
<polygon fill="#ffffb3" stroke="black" points="1082.74,-122 961.26,-122 961.26,-86 1082.74,-86 1082.74,-122"/>
<text text-anchor="middle" x="1022" y="-99.8" font-family="Times,serif" font-size="14.00">HeaderComponent</text>
</g>
<!-- HeaderComponent&#45;&gt;AppModule -->
<g id="edge7" class="edge">
<title>HeaderComponent&#45;&gt;AppModule</title>
<path fill="none" stroke="black" d="M1022,-122.19C1022,-137.18 1022,-156 1022,-156 1022,-156 1141.92,-156 1141.92,-156"/>
<polygon fill="black" stroke="black" points="1141.92,-159.5 1151.92,-156 1141.92,-152.5 1141.92,-159.5"/>
</g>
<!-- HomeComponent -->
<g id="node8" class="node">
<title>HomeComponent</title>
<polygon fill="#ffffb3" stroke="black" points="942.55,-122 827.45,-122 827.45,-86 942.55,-86 942.55,-122"/>
<text text-anchor="middle" x="885" y="-99.8" font-family="Times,serif" font-size="14.00">HomeComponent</text>
</g>
<!-- HomeComponent&#45;&gt;AppModule -->
<g id="edge8" class="edge">
<title>HomeComponent&#45;&gt;AppModule</title>
<path fill="none" stroke="black" d="M885,-122.03C885,-138.4 885,-160 885,-160 885,-160 1142.33,-160 1142.33,-160"/>
<polygon fill="black" stroke="black" points="1142.33,-163.5 1152.33,-160 1142.33,-156.5 1142.33,-163.5"/>
</g>
<!-- LoginComponent -->
<g id="node9" class="node">
<title>LoginComponent</title>
<polygon fill="#ffffb3" stroke="black" points="809.28,-122 694.72,-122 694.72,-86 809.28,-86 809.28,-122"/>
<text text-anchor="middle" x="752" y="-99.8" font-family="Times,serif" font-size="14.00">LoginComponent</text>
</g>
<!-- LoginComponent&#45;&gt;AppModule -->
<g id="edge9" class="edge">
<title>LoginComponent&#45;&gt;AppModule</title>
<path fill="none" stroke="black" d="M752,-122.3C752,-140.27 752,-165 752,-165 752,-165 1142.02,-165 1142.02,-165"/>
<polygon fill="black" stroke="black" points="1142.02,-168.5 1152.02,-165 1142.02,-161.5 1142.02,-168.5"/>
</g>
<!-- MyLibraryComponent -->
<g id="node10" class="node">
<title>MyLibraryComponent</title>
<polygon fill="#ffffb3" stroke="black" points="676.26,-122 533.74,-122 533.74,-86 676.26,-86 676.26,-122"/>
<text text-anchor="middle" x="605" y="-99.8" font-family="Times,serif" font-size="14.00">MyLibraryComponent</text>
</g>
<!-- MyLibraryComponent&#45;&gt;AppModule -->
<g id="edge10" class="edge">
<title>MyLibraryComponent&#45;&gt;AppModule</title>
<path fill="none" stroke="black" d="M605,-122.11C605,-141.34 605,-169 605,-169 605,-169 1142.11,-169 1142.11,-169"/>
<polygon fill="black" stroke="black" points="1142.11,-172.5 1152.11,-169 1142.11,-165.5 1142.11,-172.5"/>
</g>
<!-- RecoverPasswordComponent -->
<g id="node11" class="node">
<title>RecoverPasswordComponent</title>
<polygon fill="#ffffb3" stroke="black" points="515.63,-122 334.37,-122 334.37,-86 515.63,-86 515.63,-122"/>
<text text-anchor="middle" x="425" y="-99.8" font-family="Times,serif" font-size="14.00">RecoverPasswordComponent</text>
</g>
<!-- RecoverPasswordComponent&#45;&gt;AppModule -->
<g id="edge11" class="edge">
<title>RecoverPasswordComponent&#45;&gt;AppModule</title>
<path fill="none" stroke="black" d="M425,-122.03C425,-142.77 425,-174 425,-174 425,-174 1142.11,-174 1142.11,-174"/>
<polygon fill="black" stroke="black" points="1142.11,-177.5 1152.11,-174 1142.11,-170.5 1142.11,-177.5"/>
</g>
<!-- RegisterComponent -->
<g id="node12" class="node">
<title>RegisterComponent</title>
<polygon fill="#ffffb3" stroke="black" points="315.98,-122 188.02,-122 188.02,-86 315.98,-86 315.98,-122"/>
<text text-anchor="middle" x="252" y="-99.8" font-family="Times,serif" font-size="14.00">RegisterComponent</text>
</g>
<!-- RegisterComponent&#45;&gt;AppModule -->
<g id="edge12" class="edge">
<title>RegisterComponent&#45;&gt;AppModule</title>
<path fill="none" stroke="black" d="M252,-122.29C252,-144.21 252,-178 252,-178 252,-178 1142.31,-178 1142.31,-178"/>
<polygon fill="black" stroke="black" points="1142.31,-181.5 1152.31,-178 1142.31,-174.5 1142.31,-181.5"/>
</g>
<!-- UserProfileComponent -->
<g id="node13" class="node">
<title>UserProfileComponent</title>
<polygon fill="#ffffb3" stroke="black" points="169.86,-122 24.14,-122 24.14,-86 169.86,-86 169.86,-122"/>
<text text-anchor="middle" x="97" y="-99.8" font-family="Times,serif" font-size="14.00">UserProfileComponent</text>
</g>
<!-- UserProfileComponent&#45;&gt;AppModule -->
<g id="edge13" class="edge">
<title>UserProfileComponent&#45;&gt;AppModule</title>
<path fill="none" stroke="black" d="M97,-122.32C97,-145.66 97,-183 97,-183 97,-183 1142.34,-183 1142.34,-183"/>
<polygon fill="black" stroke="black" points="1142.34,-186.5 1152.34,-183 1142.34,-179.5 1142.34,-186.5"/>
</g>
<!-- AppComponent  -->
<g id="node16" class="node">
<title>AppComponent </title>
<polygon fill="#80b1d3" stroke="black" points="1248.44,-252 1139.56,-252 1139.56,-216 1248.44,-216 1248.44,-252"/>
<text text-anchor="middle" x="1194" y="-229.8" font-family="Times,serif" font-size="14.00">AppComponent </text>
</g>
<!-- AppModule&#45;&gt;AppComponent  -->
<g id="edge15" class="edge">
<title>AppModule&#45;&gt;AppComponent </title>
<path fill="none" stroke="black" stroke-dasharray="1,5" d="M1194,-187.11C1194,-187.11 1194,-205.99 1194,-205.99"/>
<polygon fill="black" stroke="black" points="1190.5,-205.99 1194,-215.99 1197.5,-205.99 1190.5,-205.99"/>
</g>
<!-- AppRoutingModule -->
<g id="node15" class="node">
<title>AppRoutingModule</title>
<polygon fill="#8dd3c7" stroke="black" points="2363.27,-122 2360.27,-126 2339.27,-126 2336.27,-122 2234.73,-122 2234.73,-86 2363.27,-86 2363.27,-122"/>
<text text-anchor="middle" x="2299" y="-99.8" font-family="Times,serif" font-size="14.00">AppRoutingModule</text>
</g>
<!-- AppRoutingModule&#45;&gt;AppModule -->
<g id="edge14" class="edge">
<title>AppRoutingModule&#45;&gt;AppModule</title>
<path fill="none" stroke="black" d="M2299,-122.32C2299,-145.66 2299,-183 2299,-183 2299,-183 1245.97,-183 1245.97,-183"/>
<polygon fill="black" stroke="black" points="1245.97,-179.5 1235.97,-183 1245.97,-186.5 1245.97,-179.5"/>
</g>
<!-- AuthService -->
<g id="node17" class="node">
<title>AuthService</title>
<ellipse fill="#fdb462" stroke="black" cx="2152" cy="-104" rx="59.11" ry="18"/>
<text text-anchor="middle" x="2152" y="-99.8" font-family="Times,serif" font-size="14.00">AuthService</text>
</g>
<!-- AuthService&#45;&gt;AppModule -->
<g id="edge16" class="edge">
<title>AuthService&#45;&gt;AppModule</title>
<path fill="none" stroke="black" d="M2152,-122.29C2152,-144.21 2152,-178 2152,-178 2152,-178 1245.78,-178 1245.78,-178"/>
<polygon fill="black" stroke="black" points="1245.78,-174.5 1235.78,-178 1245.78,-181.5 1245.78,-174.5"/>
</g>
</g>
</svg>
