<?xml version="1.0" encoding="UTF-8" standalone="no"?>
<!DOCTYPE svg PUBLIC "-//W3C//DTD SVG 1.1//EN"
 "http://www.w3.org/Graphics/SVG/1.1/DTD/svg11.dtd">
<!-- Generated by graphviz version 2.47.0 (20210316.0004)
 -->
<!-- Title: dependencies Pages: 1 -->
<svg width="2395pt" height="284pt"
 viewBox="0.00 0.00 2395.00 284.00" xmlns="http://www.w3.org/2000/svg" xmlns:xlink="http://www.w3.org/1999/xlink">
<g id="graph0" class="graph" transform="scale(1 1) rotate(0) translate(4 280)">
<title>dependencies</title>
<polygon fill="white" stroke="transparent" points="-4,4 -4,-280 2391,-280 2391,4 -4,4"/>
<text text-anchor="start" x="1172.51" y="-42.4" font-family="Times-12" font-weight="bold" font-size="14.00">Legend</text>
<polygon fill="#ffffb3" stroke="transparent" points="959.5,-10 959.5,-30 979.5,-30 979.5,-10 959.5,-10"/>
<text text-anchor="start" x="983.13" y="-15.4" font-family="Times-12" font-size="14.00"> &#160;Declarations</text>
<polygon fill="#8dd3c7" stroke="transparent" points="1072.5,-10 1072.5,-30 1092.5,-30 1092.5,-10 1072.5,-10"/>
<text text-anchor="start" x="1096.23" y="-15.4" font-family="Times-12" font-size="14.00"> &#160;Module</text>
<polygon fill="#80b1d3" stroke="transparent" points="1158.5,-10 1158.5,-30 1178.5,-30 1178.5,-10 1158.5,-10"/>
<text text-anchor="start" x="1182.28" y="-15.4" font-family="Times-12" font-size="14.00"> &#160;Bootstrap</text>
<polygon fill="#fdb462" stroke="transparent" points="1255.5,-10 1255.5,-30 1275.5,-30 1275.5,-10 1255.5,-10"/>
<text text-anchor="start" x="1279.17" y="-15.4" font-family="Times-12" font-size="14.00"> &#160;Providers</text>
<polygon fill="#fb8072" stroke="transparent" points="1351.5,-10 1351.5,-30 1371.5,-30 1371.5,-10 1351.5,-10"/>
<text text-anchor="start" x="1375.23" y="-15.4" font-family="Times-12" font-size="14.00"> &#160;Exports</text>
<g id="clust1" class="cluster">
<title>cluster_AppModule</title>
<polygon fill="none" stroke="black" stroke-dasharray="1,5" points="8,-70 8,-268 2379,-268 2379,-70 8,-70"/>
</g>
<g id="clust2" class="cluster">
<title>cluster_AppModule_declarations</title>
<polygon fill="none" stroke="black" points="310,-78 310,-130 2371,-130 2371,-78 310,-78"/>
</g>
<g id="clust16" class="cluster">
<title>cluster_AppModule_imports</title>
<polygon fill="none" stroke="black" points="158,-78 158,-130 302,-130 302,-78 158,-78"/>
</g>
<g id="clust18" class="cluster">
<title>cluster_AppModule_bootstrap</title>
<polygon fill="none" stroke="black" points="1117,-208 1117,-260 1241,-260 1241,-208 1117,-208"/>
</g>
<g id="clust19" class="cluster">
<title>cluster_AppModule_providers</title>
<polygon fill="none" stroke="black" points="16,-78 16,-130 150,-130 150,-78 16,-78"/>
</g>
<!-- AppComponent -->
<g id="node1" class="node">
<title>AppComponent</title>
<polygon fill="#ffffb3" stroke="black" points="2362.94,-122 2257.06,-122 2257.06,-86 2362.94,-86 2362.94,-122"/>
<text text-anchor="middle" x="2310" y="-99.8" font-family="Times,serif" font-size="14.00">AppComponent</text>
</g>
<!-- AppModule -->
<g id="node14" class="node">
<title>AppModule</title>
<polygon fill="#8dd3c7" stroke="black" points="1220.66,-187 1217.66,-191 1196.66,-191 1193.66,-187 1137.34,-187 1137.34,-151 1220.66,-151 1220.66,-187"/>
<text text-anchor="middle" x="1179" y="-164.8" font-family="Times,serif" font-size="14.00">AppModule</text>
</g>
<!-- AppComponent&#45;&gt;AppModule -->
<g id="edge1" class="edge">
<title>AppComponent&#45;&gt;AppModule</title>
<path fill="none" stroke="black" d="M2310,-122.32C2310,-145.66 2310,-183 2310,-183 2310,-183 1230.93,-183 1230.93,-183"/>
<polygon fill="black" stroke="black" points="1230.93,-179.5 1220.93,-183 1230.93,-186.5 1230.93,-179.5"/>
</g>
<!-- CategoryComponent -->
<g id="node2" class="node">
<title>CategoryComponent</title>
<polygon fill="#ffffb3" stroke="black" points="2239.15,-122 2106.85,-122 2106.85,-86 2239.15,-86 2239.15,-122"/>
<text text-anchor="middle" x="2173" y="-99.8" font-family="Times,serif" font-size="14.00">CategoryComponent</text>
</g>
<!-- CategoryComponent&#45;&gt;AppModule -->
<g id="edge2" class="edge">
<title>CategoryComponent&#45;&gt;AppModule</title>
<path fill="none" stroke="black" d="M2173,-122.29C2173,-144.21 2173,-178 2173,-178 2173,-178 1230.76,-178 1230.76,-178"/>
<polygon fill="black" stroke="black" points="1230.76,-174.5 1220.76,-178 1230.76,-181.5 1230.76,-174.5"/>
</g>
<!-- ConfirmationModalComponent -->
<g id="node3" class="node">
<title>ConfirmationModalComponent</title>
<polygon fill="#ffffb3" stroke="black" points="2088.82,-122 1895.18,-122 1895.18,-86 2088.82,-86 2088.82,-122"/>
<text text-anchor="middle" x="1992" y="-99.8" font-family="Times,serif" font-size="14.00">ConfirmationModalComponent</text>
</g>
<!-- ConfirmationModalComponent&#45;&gt;AppModule -->
<g id="edge3" class="edge">
<title>ConfirmationModalComponent&#45;&gt;AppModule</title>
<path fill="none" stroke="black" d="M1992,-122.03C1992,-142.77 1992,-174 1992,-174 1992,-174 1230.72,-174 1230.72,-174"/>
<polygon fill="black" stroke="black" points="1230.72,-170.5 1220.72,-174 1230.72,-177.5 1230.72,-170.5"/>
</g>
<!-- FooterComponent -->
<g id="node4" class="node">
<title>FooterComponent</title>
<polygon fill="#ffffb3" stroke="black" points="1876.88,-122 1759.12,-122 1759.12,-86 1876.88,-86 1876.88,-122"/>
<text text-anchor="middle" x="1818" y="-99.8" font-family="Times,serif" font-size="14.00">FooterComponent</text>
</g>
<!-- FooterComponent&#45;&gt;AppModule -->
<g id="edge4" class="edge">
<title>FooterComponent&#45;&gt;AppModule</title>
<path fill="none" stroke="black" d="M1818,-122.11C1818,-141.34 1818,-169 1818,-169 1818,-169 1230.93,-169 1230.93,-169"/>
<polygon fill="black" stroke="black" points="1230.93,-165.5 1220.93,-169 1230.93,-172.5 1230.93,-165.5"/>
</g>
<!-- GameCardComponent -->
<g id="node5" class="node">
<title>GameCardComponent</title>
<polygon fill="#ffffb3" stroke="black" points="1740.97,-122 1599.03,-122 1599.03,-86 1740.97,-86 1740.97,-122"/>
<text text-anchor="middle" x="1670" y="-99.8" font-family="Times,serif" font-size="14.00">GameCardComponent</text>
</g>
<!-- GameCardComponent&#45;&gt;AppModule -->
<g id="edge5" class="edge">
<title>GameCardComponent&#45;&gt;AppModule</title>
<path fill="none" stroke="black" d="M1670,-122.3C1670,-140.27 1670,-165 1670,-165 1670,-165 1230.86,-165 1230.86,-165"/>
<polygon fill="black" stroke="black" points="1230.86,-161.5 1220.86,-165 1230.86,-168.5 1230.86,-161.5"/>
</g>
<!-- GameDetailModalComponent -->
<g id="node6" class="node">
<title>GameDetailModalComponent</title>
<polygon fill="#ffffb3" stroke="black" points="1580.52,-122 1395.48,-122 1395.48,-86 1580.52,-86 1580.52,-122"/>
<text text-anchor="middle" x="1488" y="-99.8" font-family="Times,serif" font-size="14.00">GameDetailModalComponent</text>
</g>
<!-- GameDetailModalComponent&#45;&gt;AppModule -->
<g id="edge6" class="edge">
<title>GameDetailModalComponent&#45;&gt;AppModule</title>
<path fill="none" stroke="black" d="M1488,-122.03C1488,-138.4 1488,-160 1488,-160 1488,-160 1230.67,-160 1230.67,-160"/>
<polygon fill="black" stroke="black" points="1230.67,-156.5 1220.67,-160 1230.67,-163.5 1230.67,-156.5"/>
</g>
<!-- HeaderComponent -->
<g id="node7" class="node">
<title>HeaderComponent</title>
<polygon fill="#ffffb3" stroke="black" points="1376.74,-122 1255.26,-122 1255.26,-86 1376.74,-86 1376.74,-122"/>
<text text-anchor="middle" x="1316" y="-99.8" font-family="Times,serif" font-size="14.00">HeaderComponent</text>
</g>
<!-- HeaderComponent&#45;&gt;AppModule -->
<g id="edge7" class="edge">
<title>HeaderComponent&#45;&gt;AppModule</title>
<path fill="none" stroke="black" d="M1316,-122.19C1316,-137.18 1316,-156 1316,-156 1316,-156 1230.85,-156 1230.85,-156"/>
<polygon fill="black" stroke="black" points="1230.85,-152.5 1220.85,-156 1230.85,-159.5 1230.85,-152.5"/>
</g>
<!-- HomeComponent -->
<g id="node8" class="node">
<title>HomeComponent</title>
<polygon fill="#ffffb3" stroke="black" points="1236.55,-122 1121.45,-122 1121.45,-86 1236.55,-86 1236.55,-122"/>
<text text-anchor="middle" x="1179" y="-99.8" font-family="Times,serif" font-size="14.00">HomeComponent</text>
</g>
<!-- HomeComponent&#45;&gt;AppModule -->
<g id="edge8" class="edge">
<title>HomeComponent&#45;&gt;AppModule</title>
<path fill="none" stroke="black" d="M1179,-122.11C1179,-122.11 1179,-140.99 1179,-140.99"/>
<polygon fill="black" stroke="black" points="1175.5,-140.99 1179,-150.99 1182.5,-140.99 1175.5,-140.99"/>
</g>
<!-- LoginComponent -->
<g id="node9" class="node">
<title>LoginComponent</title>
<polygon fill="#ffffb3" stroke="black" points="1103.28,-122 988.72,-122 988.72,-86 1103.28,-86 1103.28,-122"/>
<text text-anchor="middle" x="1046" y="-99.8" font-family="Times,serif" font-size="14.00">LoginComponent</text>
</g>
<!-- LoginComponent&#45;&gt;AppModule -->
<g id="edge9" class="edge">
<title>LoginComponent&#45;&gt;AppModule</title>
<path fill="none" stroke="black" d="M1046,-122.19C1046,-137.18 1046,-156 1046,-156 1046,-156 1127.28,-156 1127.28,-156"/>
<polygon fill="black" stroke="black" points="1127.28,-159.5 1137.28,-156 1127.28,-152.5 1127.28,-159.5"/>
</g>
<!-- MyLibraryComponent -->
<g id="node10" class="node">
<title>MyLibraryComponent</title>
<polygon fill="#ffffb3" stroke="black" points="970.26,-122 827.74,-122 827.74,-86 970.26,-86 970.26,-122"/>
<text text-anchor="middle" x="899" y="-99.8" font-family="Times,serif" font-size="14.00">MyLibraryComponent</text>
</g>
<!-- MyLibraryComponent&#45;&gt;AppModule -->
<g id="edge10" class="edge">
<title>MyLibraryComponent&#45;&gt;AppModule</title>
<path fill="none" stroke="black" d="M899,-122.03C899,-138.4 899,-160 899,-160 899,-160 1127.08,-160 1127.08,-160"/>
<polygon fill="black" stroke="black" points="1127.08,-163.5 1137.08,-160 1127.08,-156.5 1127.08,-163.5"/>
</g>
<!-- RecoverPasswordComponent -->
<g id="node11" class="node">
<title>RecoverPasswordComponent</title>
<polygon fill="#ffffb3" stroke="black" points="809.63,-122 628.37,-122 628.37,-86 809.63,-86 809.63,-122"/>
<text text-anchor="middle" x="719" y="-99.8" font-family="Times,serif" font-size="14.00">RecoverPasswordComponent</text>
</g>
<!-- RecoverPasswordComponent&#45;&gt;AppModule -->
<g id="edge11" class="edge">
<title>RecoverPasswordComponent&#45;&gt;AppModule</title>
<path fill="none" stroke="black" d="M719,-122.3C719,-140.27 719,-165 719,-165 719,-165 1126.96,-165 1126.96,-165"/>
<polygon fill="black" stroke="black" points="1126.96,-168.5 1136.96,-165 1126.96,-161.5 1126.96,-168.5"/>
</g>
<!-- RegisterComponent -->
<g id="node12" class="node">
<title>RegisterComponent</title>
<polygon fill="#ffffb3" stroke="black" points="609.98,-122 482.02,-122 482.02,-86 609.98,-86 609.98,-122"/>
<text text-anchor="middle" x="546" y="-99.8" font-family="Times,serif" font-size="14.00">RegisterComponent</text>
</g>
<!-- RegisterComponent&#45;&gt;AppModule -->
<g id="edge12" class="edge">
<title>RegisterComponent&#45;&gt;AppModule</title>
<path fill="none" stroke="black" d="M546,-122.11C546,-141.34 546,-169 546,-169 546,-169 1126.98,-169 1126.98,-169"/>
<polygon fill="black" stroke="black" points="1126.98,-172.5 1136.98,-169 1126.98,-165.5 1126.98,-172.5"/>
</g>
<!-- UserProfileComponent -->
<g id="node13" class="node">
<title>UserProfileComponent</title>
<polygon fill="#ffffb3" stroke="black" points="463.86,-122 318.14,-122 318.14,-86 463.86,-86 463.86,-122"/>
<text text-anchor="middle" x="391" y="-99.8" font-family="Times,serif" font-size="14.00">UserProfileComponent</text>
</g>
<!-- UserProfileComponent&#45;&gt;AppModule -->
<g id="edge13" class="edge">
<title>UserProfileComponent&#45;&gt;AppModule</title>
<path fill="none" stroke="black" d="M391,-122.03C391,-142.77 391,-174 391,-174 391,-174 1127.19,-174 1127.19,-174"/>
<polygon fill="black" stroke="black" points="1127.19,-177.5 1137.19,-174 1127.19,-170.5 1127.19,-177.5"/>
</g>
<!-- AppComponent  -->
<g id="node16" class="node">
<title>AppComponent </title>
<polygon fill="#80b1d3" stroke="black" points="1233.44,-252 1124.56,-252 1124.56,-216 1233.44,-216 1233.44,-252"/>
<text text-anchor="middle" x="1179" y="-229.8" font-family="Times,serif" font-size="14.00">AppComponent </text>
</g>
<!-- AppModule&#45;&gt;AppComponent  -->
<g id="edge15" class="edge">
<title>AppModule&#45;&gt;AppComponent </title>
<path fill="none" stroke="black" stroke-dasharray="1,5" d="M1179,-187.11C1179,-187.11 1179,-205.99 1179,-205.99"/>
<polygon fill="black" stroke="black" points="1175.5,-205.99 1179,-215.99 1182.5,-205.99 1175.5,-205.99"/>
</g>
<!-- AppRoutingModule -->
<g id="node15" class="node">
<title>AppRoutingModule</title>
<polygon fill="#8dd3c7" stroke="black" points="294.27,-122 291.27,-126 270.27,-126 267.27,-122 165.73,-122 165.73,-86 294.27,-86 294.27,-122"/>
<text text-anchor="middle" x="230" y="-99.8" font-family="Times,serif" font-size="14.00">AppRoutingModule</text>
</g>
<!-- AppRoutingModule&#45;&gt;AppModule -->
<g id="edge14" class="edge">
<title>AppRoutingModule&#45;&gt;AppModule</title>
<path fill="none" stroke="black" d="M230,-122.29C230,-144.21 230,-178 230,-178 230,-178 1127.31,-178 1127.31,-178"/>
<polygon fill="black" stroke="black" points="1127.31,-181.5 1137.31,-178 1127.31,-174.5 1127.31,-181.5"/>
</g>
<!-- AuthService -->
<g id="node17" class="node">
<title>AuthService</title>
<ellipse fill="#fdb462" stroke="black" cx="83" cy="-104" rx="59.11" ry="18"/>
<text text-anchor="middle" x="83" y="-99.8" font-family="Times,serif" font-size="14.00">AuthService</text>
</g>
<!-- AuthService&#45;&gt;AppModule -->
<g id="edge16" class="edge">
<title>AuthService&#45;&gt;AppModule</title>
<path fill="none" stroke="black" d="M83,-122.32C83,-145.66 83,-183 83,-183 83,-183 1127.04,-183 1127.04,-183"/>
<polygon fill="black" stroke="black" points="1127.04,-186.5 1137.04,-183 1127.04,-179.5 1127.04,-186.5"/>
</g>
</g>
</svg>
